#N canvas 882 52 985 690 12;
#X obj 38 100 abl_link~;
#X msg 38 69 connect \$1;
#X floatatom 38 142 5 0 0 0 - - -;
#X floatatom 94 139 5 0 0 0 - - -;
#X floatatom 150 142 5 0 0 0 - - -;
#X floatatom 128 386 5 0 0 0 - - -;
#X floatatom 129 562 5 0 0 0 - - -;
#X floatatom 171 387 5 0 0 0 - - -;
#X floatatom 214 387 5 0 0 0 - - -;
#X floatatom 286 313 5 0 0 0 - - -;
#X obj 127 353 unpack 0 0 0;
#X floatatom 344 314 5 0 0 0 - - -;
#X msg 143 71 offset \$1;
#X floatatom 142 27 5 0 0 0 - - -;
#X obj 128 181 netreceive -u -b 4000;
#X obj 128 210 oscparse;
#X obj 128 243 list trim;
#X obj 143 319 print apres route;
#X obj 4 277 print apres OSC;
#X obj 130 491 value;
#X obj 191 26 receive offset;
#X obj 345 356 send offset;
#X obj 129 646 outlet;
#X obj 286 391 outlet;
#X obj 38 180 send pulse;
#X obj 11 451 receive start;
#X obj 11 489 bng 15 250 50 0 empty empty empty 17 7 0 10 -262144 -1
-1;
#X obj 185 456 bng 15 250 50 0 empty empty empty 17 7 0 10 -262144
-1 -1;
#X obj 130 534 spigot;
#X obj 170 619 send stop;
#X msg 185 492 1;
#X msg 228 492 0;
#X obj 228 435 receive stop;
#X obj 170 590 delay 200;
#X obj 244 466 bng 15 250 50 0 empty empty empty 17 7 0 10 -262144
-1 -1;
#X obj 38 9 loadbang;
#X obj 128 274 route test level offset duration;
#X obj 171 412 send duration;
#X obj 39 43 tgl 15 0 empty empty empty 17 7 0 10 -262144 -1 -1 1 1
;
#X obj 10 9 bng 15 250 50 0 empty empty empty 17 7 0 10 -262144 -1
-1;
#X obj 472 61 compteurModulo;
#X obj 472 97 send start;
#X obj 421 23 r pulse;
#X obj 486 24 r duration;
#X obj 567 340 await;
#X obj 520 301 r pulse;
#X floatatom 495 334 5 0 0 0 - - -;
#X floatatom 624 301 5 0 0 0 - - -;
#X obj 567 385 bng 15 250 50 0 empty empty empty 17 7 0 10 -262144
-1 -1;
#X connect 0 0 2 0;
#X connect 0 1 3 0;
#X connect 0 3 4 0;
#X connect 1 0 0 0;
#X connect 2 0 24 0;
#X connect 5 0 19 0;
#X connect 5 0 27 0;
#X connect 6 0 22 0;
#X connect 6 0 33 0;
#X connect 7 0 37 0;
#X connect 9 0 23 0;
#X connect 10 0 5 0;
#X connect 10 1 7 0;
#X connect 10 2 8 0;
#X connect 11 0 21 0;
#X connect 12 0 0 0;
#X connect 13 0 12 0;
#X connect 14 0 15 0;
#X connect 15 0 16 0;
#X connect 16 0 18 0;
#X connect 16 0 36 0;
#X connect 19 0 28 0;
#X connect 20 0 12 0;
#X connect 25 0 26 0;
#X connect 25 0 19 0;
#X connect 27 0 30 0;
#X connect 28 0 6 0;
#X connect 30 0 28 1;
#X connect 31 0 28 1;
#X connect 32 0 31 0;
#X connect 32 0 34 0;
#X connect 33 0 29 0;
#X connect 35 0 38 0;
#X connect 36 0 10 0;
#X connect 36 0 17 0;
#X connect 36 1 9 0;
#X connect 36 2 11 0;
#X connect 38 0 1 0;
#X connect 39 0 38 0;
#X connect 40 0 41 0;
#X connect 42 0 40 0;
#X connect 43 0 40 1;
#X connect 44 0 48 0;
#X connect 45 0 46 0;
#X connect 45 0 44 0;
#X connect 47 0 44 1;
