#N canvas 305 179 988 741 10;
#X obj 250 82 loadbang;
#X msg 213 135 \; pd dsp 1;
#X floatatom 11 90 5 0 0 0 - - -;
#X floatatom 491 550 5 0 0 0 - - -;
#X obj 27 313 tabplay~;
#X obj 28 365 *~ 1;
#X floatatom 456 597 5 0 0 0 - - -;
#X floatatom 456 648 5 0 0 0 - - -;
#X msg 456 550 100;
#X obj 11 46 synchroSkini;
#X obj 143 82 select 0 1;
#X msg 143 136 \; pd dsp 0;
#X obj 143 111 bng 15 250 50 0 empty empty empty 17 7 0 10 -262144
-1 -1;
#X obj 213 110 bng 15 250 50 0 empty empty empty 17 7 0 10 -262144
-1 -1;
#X msg 18 595 read -resize -maxsize 1.6e+07 son\$1.wav buffer_son\$1
;
#X obj 108 620 print;
#X obj 18 621 soundfiler;
#N canvas 503 458 530 469 listeLesSons 0;
#X obj 77 27 inlet;
#X obj 976 69 until;
#X obj 976 97 f;
#X obj 1014 97 + 1;
#X obj 1059 96 sel 0;
#X obj 1014 123 mod;
#X msg 975 38 32;
#X obj 986 79 until;
#X obj 986 107 f;
#X obj 1024 107 + 1;
#X obj 1069 106 sel 0;
#X obj 1024 133 mod;
#X msg 985 48 32;
#X obj 996 89 until;
#X obj 996 117 f;
#X obj 1034 117 + 1;
#X obj 1079 116 sel 0;
#X obj 1034 143 mod;
#X obj 1006 99 until;
#X obj 1006 127 f;
#X obj 1044 127 + 1;
#X obj 1089 126 sel 0;
#X obj 1044 153 mod;
#X obj 77 68 until;
#X obj 77 127 f;
#X obj 193 116 sel 0;
#X obj 140 150 mod;
#X obj 140 115 + 1;
#X obj 152 49 print;
#X msg 1020 486 read -resize -maxsize 1.6e+07 son\$1.wav buffer_son\$1
;
#X obj 1110 511 print;
#X obj 1020 512 soundfiler;
#X obj 1110 534 print;
#X obj 77 198 outlet;
#X connect 0 0 23 0;
#X connect 0 0 26 1;
#X connect 1 0 2 0;
#X connect 2 0 3 0;
#X connect 3 0 5 0;
#X connect 4 0 1 1;
#X connect 5 0 2 1;
#X connect 5 0 4 0;
#X connect 6 0 5 1;
#X connect 6 0 1 0;
#X connect 7 0 8 0;
#X connect 8 0 9 0;
#X connect 9 0 11 0;
#X connect 10 0 7 1;
#X connect 11 0 8 1;
#X connect 11 0 10 0;
#X connect 12 0 11 1;
#X connect 12 0 7 0;
#X connect 13 0 14 0;
#X connect 14 0 15 0;
#X connect 15 0 17 0;
#X connect 16 0 13 1;
#X connect 17 0 14 1;
#X connect 17 0 16 0;
#X connect 18 0 19 0;
#X connect 19 0 20 0;
#X connect 20 0 22 0;
#X connect 21 0 18 1;
#X connect 22 0 19 1;
#X connect 22 0 21 0;
#X connect 23 0 24 0;
#X connect 24 0 27 0;
#X connect 24 0 33 0;
#X connect 25 0 23 1;
#X connect 26 0 25 0;
#X connect 26 0 24 1;
#X connect 27 0 26 0;
#X connect 29 0 30 0;
#X connect 29 0 31 0;
#X connect 31 1 32 0;
#X restore 18 568 pd listeLesSons;
#X obj 18 496 bng 15 250 50 0 empty empty empty 17 7 0 10 -262144 -1
-1;
#X obj 71 497 loadbang;
#X obj 456 502 loadbang;
#X msg 148 255 set buffer_son\$1;
#X floatatom 148 232 5 0 0 0 - - -;
#X obj 148 287 print;
#X obj 11 122 s sonChoisi;
#X obj 27 202 r sonChoisi;
#X obj 27 228 bng 15 250 50 0 empty empty empty 17 7 0 10 -262144 -1
-1;
#X obj 594 26 table buffer_son2;
#X obj 595 5 table buffer_son1;
#X obj 595 48 table buffer_son3;
#X obj 595 70 table buffer_son4;
#X obj 594 91 table buffer_son5;
#X obj 595 113 table buffer_son6;
#X obj 596 134 table buffer_son7;
#X obj 595 155 table buffer_son8;
#X obj 596 177 table buffer_son9;
#X obj 596 198 table buffer_son10;
#X obj 459 576 hsl 128 15 0 127 0 0 empty empty empty -2 -8 0 10 -262144
-1 -1 8000 1;
#X obj 456 619 dbtorms;
#X obj 138 442 dac~;
#X obj 45 90 s niveau;
#X obj 491 525 r niveau;
#X obj 716 6 table buffer_son11;
#X obj 715 27 table buffer_son12;
#X obj 716 49 table buffer_son13;
#X obj 716 71 table buffer_son14;
#X obj 715 92 table buffer_son15;
#X obj 716 114 table buffer_son16;
#X obj 717 135 table buffer_son17;
#X obj 716 156 table buffer_son18;
#X obj 717 178 table buffer_son19;
#X obj 717 200 table buffer_son20;
#X obj 841 6 table buffer_son21;
#X obj 840 27 table buffer_son22;
#X obj 841 49 table buffer_son23;
#X obj 841 71 table buffer_son24;
#X obj 840 92 table buffer_son25;
#X obj 841 114 table buffer_son26;
#X obj 842 135 table buffer_son27;
#X obj 841 155 table buffer_son28;
#X obj 842 178 table buffer_son29;
#X obj 842 199 table buffer_son30;
#X text 12 475 Chargement des sons;
#X text 29 183 Jeu des sons;
#X text 52 525 Le nombre de sons que l'on veut charger doit correpondre
au nombre de buffers;
#X text 9 22 Sélection des sons avec synchronisation;
#X msg 393 250 symbol buffer_son\$1;
#X text 133 50 Allumage de l'audio à l'ouverture ou commande OSC startDSP
;
#X obj 75 649 unpack 0 0 0 0;
#X obj 86 673 s bitrate;
#X obj 75 695 print bitrate;
#X obj 456 677 s niveauDB;
#X obj 49 339 r niveauDB;
#N canvas 1306 651 742 363 calculRetard 1;
#X obj 90 48 expr size("$s1");
#X obj 90 77 print array size;
#N canvas 1433 169 450 300 calculDureeEchantillon 0;
#X obj 95 15 inlet;
#X obj 161 15 loadbang;
#X msg 161 42 1000;
#X obj 660 438 /;
#X floatatom 661 462 15 0 0 0 - - -;
#X msg 660 362 1;
#X obj 707 409 t b f;
#X obj 660 409 f;
#X floatatom 660 385 5 0 0 0 - - -;
#X obj 661 484 s dureeEch;
#X obj 706 376 /;
#X msg 97 86 1;
#X floatatom 97 110 5 0 0 0 - - -;
#X obj 97 132 f;
#X obj 96 155 /;
#X floatatom 96 180 15 0 0 0 - - -;
#X obj 96 210 outlet;
#X obj 146 133 t b f;
#X obj 146 108 /;
#X connect 0 0 18 0;
#X connect 0 0 2 0;
#X connect 1 0 2 0;
#X connect 2 0 18 1;
#X connect 3 0 4 0;
#X connect 4 0 9 0;
#X connect 5 0 8 0;
#X connect 6 0 5 0;
#X connect 6 1 3 1;
#X connect 7 0 3 0;
#X connect 8 0 7 0;
#X connect 10 0 6 0;
#X connect 11 0 12 0;
#X connect 12 0 13 0;
#X connect 13 0 14 0;
#X connect 14 0 15 0;
#X connect 15 0 16 0;
#X connect 17 0 11 0;
#X connect 17 1 14 1;
#X connect 18 0 17 0;
#X restore 245 50 pd calculDureeEchantillon;
#X obj 245 78 print duree ech.;
#X obj 182 132 *;
#X obj 182 162 -;
#X obj 232 120 loadbang;
#X text 264 143 Ramp en fin de son;
#X obj 245 6 inlet;
#X obj 90 7 inlet;
#X obj 182 224 outlet;
#X floatatom 182 195 5 0 0 0 - - -;
#X msg 232 144 50;
#X connect 0 0 1 0;
#X connect 0 0 4 0;
#X connect 2 0 3 0;
#X connect 2 0 4 1;
#X connect 4 0 5 0;
#X connect 5 0 11 0;
#X connect 6 0 12 0;
#X connect 8 0 2 0;
#X connect 9 0 0 0;
#X connect 11 0 10 0;
#X connect 12 0 5 1;
#X restore 393 280 pd calculRetard;
#X obj 366 316 delay;
#X obj 285 373 line~;
#X obj 144 402 *~;
#X msg 285 342 1;
#X obj 40 257 s bangSonChoisi;
#X obj 280 197 r bangSonChoisi;
#X floatatom 418 316 15 0 0 0 - - -;
#X floatatom 366 377 5 0 0 0 - - -;
#X obj 134 340 bng 15 250 50 0 empty empty empty 17 7 0 10 -262144
-1 -1;
#X msg 366 347 0 50;
#X obj 295 315 loadbang;
#X text 442 476 Positionnement du niveau;
#X obj 393 197 r sonChoisi;
#X obj 285 294 bng 15 250 50 0 empty empty empty 17 7 0 10 -262144
-1 -1;
#X text 347 177 Fade out du son;
#X text 401 341 La ramp doit etre conforme au calcul du retard;
#X floatatom 393 225 5 0 0 0 - - -;
#X msg 18 531 10;
#X msg 540 251 44100;
#X obj 540 227 loadbang;
#X connect 0 0 1 0;
#X connect 2 0 24 0;
#X connect 3 0 37 0;
#X connect 4 0 5 0;
#X connect 4 1 82 0;
#X connect 5 0 76 0;
#X connect 6 0 38 0;
#X connect 7 0 71 0;
#X connect 8 0 37 0;
#X connect 9 0 2 0;
#X connect 9 1 40 0;
#X connect 9 2 10 0;
#X connect 10 0 12 0;
#X connect 10 1 13 0;
#X connect 12 0 11 0;
#X connect 13 0 1 0;
#X connect 14 0 15 0;
#X connect 14 0 16 0;
#X connect 16 1 68 0;
#X connect 17 0 14 0;
#X connect 18 0 91 0;
#X connect 19 0 91 0;
#X connect 19 0 17 0;
#X connect 20 0 8 0;
#X connect 21 0 23 0;
#X connect 21 0 4 0;
#X connect 22 0 21 0;
#X connect 25 0 22 0;
#X connect 25 0 26 0;
#X connect 26 0 4 0;
#X connect 26 0 78 0;
#X connect 37 0 6 0;
#X connect 38 0 7 0;
#X connect 41 0 3 0;
#X connect 66 0 73 0;
#X connect 68 0 69 0;
#X connect 68 0 70 0;
#X connect 72 0 5 1;
#X connect 73 0 74 1;
#X connect 73 0 80 0;
#X connect 74 0 83 0;
#X connect 75 0 76 1;
#X connect 76 0 39 0;
#X connect 76 0 39 1;
#X connect 77 0 75 0;
#X connect 79 0 74 0;
#X connect 79 0 87 0;
#X connect 79 0 73 0;
#X connect 83 0 81 0;
#X connect 83 0 75 0;
#X connect 84 0 77 0;
#X connect 86 0 90 0;
#X connect 87 0 77 0;
#X connect 90 0 66 0;
#X connect 91 0 17 0;
#X connect 92 0 73 1;
#X connect 93 0 92 0;
