#N canvas 545 316 985 690 12;
#X obj 38 100 abl_link~;
#X msg 38 69 connect \$1;
#X floatatom 38 142 5 0 0 0 - - -;
#X floatatom 94 139 5 0 0 0 - - -;
#X floatatom 150 142 5 0 0 0 - - -;
#X floatatom 128 386 5 0 0 0 - - -;
#X floatatom 129 562 5 0 0 0 - - -;
#X floatatom 171 387 5 0 0 0 - - -;
#X floatatom 214 387 5 0 0 0 - - -;
#X floatatom 286 313 5 0 0 0 - - -;
#X obj 127 353 unpack 0 0 0;
#X floatatom 344 314 5 0 0 0 - - -;
#X msg 143 71 offset \$1;
#X floatatom 142 27 5 0 0 0 - - -;
#X obj 128 181 netreceive -u -b 4000;
#X obj 128 210 oscparse;
#X obj 128 243 list trim;
#X obj 143 319 print apres route;
#X obj 4 277 print apres OSC;
#X obj 130 491 value;
#X obj 191 26 receive offset;
#X obj 345 356 send offset;
#X obj 129 646 outlet;
#X obj 286 391 outlet;
#X floatatom 604 132 5 0 0 0 - - -;
#X obj 38 180 send pulse;
#X obj 526 52 receive pulse;
#X floatatom 569 199 5 0 0 0 - - -;
#X obj 569 164 +;
#X obj 604 98 receive x;
#X obj 526 95 bng 15 250 50 0 empty empty empty 17 7 0 10 -262144 -1
-1;
#X obj 569 238 send x;
#X floatatom 639 196 5 0 0 0 - - -;
#X floatatom 613 354 5 0 0 0 - - -;
#X obj 639 163 mod;
#X floatatom 684 136 5 0 0 0 - - -;
#X obj 685 243 ==;
#X floatatom 685 289 5 0 0 0 - - -;
#X obj 613 314 spigot 0;
#X obj 562 360 bng 15 250 50 0 empty empty empty 17 7 0 10 -262144
-1 -1;
#X obj 538 278 receive pulse;
#X obj 562 391 send start;
#X obj 11 451 receive start;
#X floatatom 721 196 5 0 0 0 - - -;
#X obj 757 280 bng 15 250 50 0 empty empty empty 17 7 0 10 -262144
-1 -1;
#X obj 11 489 bng 15 250 50 0 empty empty empty 17 7 0 10 -262144 -1
-1;
#X msg 527 124 1;
#X obj 720 164 - 1;
#X obj 185 456 bng 15 250 50 0 empty empty empty 17 7 0 10 -262144
-1 -1;
#X obj 130 534 spigot;
#X obj 170 619 send stop;
#X msg 185 492 1;
#X msg 228 492 0;
#X obj 228 435 receive stop;
#X obj 170 590 delay 200;
#X obj 244 466 bng 15 250 50 0 empty empty empty 17 7 0 10 -262144
-1 -1;
#X msg 684 97 4;
#X obj 38 9 loadbang;
#X obj 128 274 route test level offset duration;
#X obj 171 412 send duration;
#X obj 730 100 receive duration;
#X floatatom 446 94 5 0 0 0 - - -;
#X obj 684 20 loadbang;
#X obj 39 43 tgl 15 0 empty empty empty 17 7 0 10 -262144 -1 -1 1 1
;
#X obj 10 9 bng 15 250 50 0 empty empty empty 17 7 0 10 -262144 -1
-1;
#X connect 0 0 2 0;
#X connect 0 1 3 0;
#X connect 0 3 4 0;
#X connect 1 0 0 0;
#X connect 2 0 25 0;
#X connect 5 0 19 0;
#X connect 5 0 48 0;
#X connect 6 0 22 0;
#X connect 6 0 54 0;
#X connect 7 0 59 0;
#X connect 9 0 23 0;
#X connect 10 0 5 0;
#X connect 10 1 7 0;
#X connect 10 2 8 0;
#X connect 11 0 21 0;
#X connect 12 0 0 0;
#X connect 13 0 12 0;
#X connect 14 0 15 0;
#X connect 15 0 16 0;
#X connect 16 0 18 0;
#X connect 16 0 58 0;
#X connect 19 0 49 0;
#X connect 20 0 12 0;
#X connect 24 0 28 1;
#X connect 24 0 34 0;
#X connect 26 0 30 0;
#X connect 26 0 61 0;
#X connect 27 0 31 0;
#X connect 28 0 27 0;
#X connect 29 0 24 0;
#X connect 30 0 46 0;
#X connect 32 0 36 0;
#X connect 34 0 32 0;
#X connect 35 0 34 1;
#X connect 35 0 47 0;
#X connect 36 0 37 0;
#X connect 36 0 44 0;
#X connect 37 0 38 1;
#X connect 38 0 33 0;
#X connect 38 0 39 0;
#X connect 39 0 41 0;
#X connect 40 0 38 0;
#X connect 42 0 45 0;
#X connect 42 0 19 0;
#X connect 43 0 36 1;
#X connect 46 0 28 0;
#X connect 47 0 43 0;
#X connect 48 0 51 0;
#X connect 49 0 6 0;
#X connect 51 0 49 1;
#X connect 52 0 49 1;
#X connect 53 0 52 0;
#X connect 53 0 55 0;
#X connect 54 0 50 0;
#X connect 56 0 35 0;
#X connect 57 0 63 0;
#X connect 58 0 10 0;
#X connect 58 0 17 0;
#X connect 58 1 9 0;
#X connect 58 2 11 0;
#X connect 60 0 35 0;
#X connect 62 0 56 0;
#X connect 63 0 1 0;
#X connect 64 0 63 0;
