#N canvas 618 26 1151 925 12;
#X obj 38 100 abl_link~;
#X msg 38 69 connect \$1;
#X floatatom 38 142 5 0 0 0 - - -;
#X floatatom 94 139 5 0 0 0 - - -;
#X floatatom 150 142 5 0 0 0 - - -;
#X floatatom 128 386 5 0 0 0 - - -;
#X floatatom 129 562 5 0 0 0 - - -;
#X floatatom 171 387 5 0 0 0 - - -;
#X floatatom 214 387 5 0 0 0 - - -;
#X floatatom 286 313 5 0 0 0 - - -;
#X obj 127 353 unpack 0 0 0;
#X floatatom 344 314 5 0 0 0 - - -;
#X msg 143 71 offset \$1;
#X floatatom 142 27 5 0 0 0 - - -;
#X obj 128 181 netreceive -u -b 4000;
#X obj 128 210 oscparse;
#X obj 128 243 list trim;
#X obj 143 319 print apres route;
#X obj 4 277 print apres OSC;
#X obj 130 491 value;
#X obj 191 26 receive offset;
#X obj 345 356 send offset;
#X obj 129 646 outlet;
#X obj 286 391 outlet;
#X floatatom 649 590 5 0 0 0 - - -;
#X obj 38 180 send pulse;
#X floatatom 614 657 5 0 0 0 - - -;
#X obj 614 622 +;
#X obj 649 546 receive x;
#X obj 526 509 bng 15 250 50 0 empty empty empty 17 7 0 10 -262144
-1 -1;
#X obj 614 696 send x;
#X floatatom 684 654 5 0 0 0 - - -;
#X floatatom 658 812 5 0 0 0 - - -;
#X obj 684 621 mod;
#X floatatom 765 582 5 0 0 0 - - -;
#X obj 730 701 ==;
#X floatatom 729 739 5 0 0 0 - - -;
#X obj 658 772 spigot 0;
#X obj 607 818 bng 15 250 50 0 empty empty empty 17 7 0 10 -262144
-1 -1;
#X obj 583 736 receive pulse;
#X obj 607 849 send start;
#X obj 11 451 receive start;
#X floatatom 765 654 5 0 0 0 - - -;
#X obj 802 738 bng 15 250 50 0 empty empty empty 17 7 0 10 -262144
-1 -1;
#X obj 11 489 bng 15 250 50 0 empty empty empty 17 7 0 10 -262144 -1
-1;
#X msg 527 554 1;
#X obj 765 622 - 1;
#X obj 185 456 bng 15 250 50 0 empty empty empty 17 7 0 10 -262144
-1 -1;
#X obj 130 534 spigot;
#X obj 170 619 send stop;
#X msg 185 492 1;
#X msg 228 492 0;
#X obj 228 435 receive stop;
#X obj 170 590 delay 200;
#X obj 244 466 bng 15 250 50 0 empty empty empty 17 7 0 10 -262144
-1 -1;
#X msg 765 535 4;
#X obj 38 9 loadbang;
#X obj 171 412 send duration;
#X obj 765 488 loadbang;
#X obj 39 43 tgl 15 0 empty empty empty 17 7 0 10 -262144 -1 -1 0 1
;
#X obj 10 9 bng 15 250 50 0 empty empty empty 17 7 0 10 -262144 -1
-1;
#X obj 443 27 receive pulse;
#X obj 542 56 bng 15 250 50 0 empty empty empty 17 7 0 10 -262144 -1
-1;
#X floatatom 486 63 5 0 0 0 - - -;
#X msg 619 496 0;
#X obj 449 100 ==;
#X msg 416 61 0;
#X floatatom 450 128 5 0 0 0 - - -;
#X obj 450 160 spigot 0;
#X obj 450 193 bng 15 250 50 0 empty empty empty 17 7 0 10 -262144
-1 -1;
#X msg 450 219 0;
#X obj 406 248 s countTheZeros;
#X text 388 7 Detecte le passage à Zéro de la phase;
#X text 682 15 Detecte un nombre de passage à Zéro de la phase;
#X floatatom 831 94 5 0 0 0 - - -;
#X floatatom 673 143 5 0 0 0 - - -;
#X floatatom 933 105 5 0 0 0 - - -;
#X floatatom 872 208 5 0 0 0 - - -;
#X obj 756 260 spigot 0;
#X obj 756 296 bng 15 250 50 0 empty empty empty 17 7 0 10 -262144
-1 -1;
#X obj 934 43 loadbang;
#X obj 756 327 send resetGlobalCounter;
#X obj 873 147 mod;
#X obj 873 178 ==;
#X msg 928 153 0;
#X floatatom 825 178 5 0 0 0 - - -;
#X obj 674 213 r countTheZeros;
#X obj 674 179 send pulseCountZero;
#X obj 799 42 r pulseCountZero;
#X obj 673 42 r countTheZeros;
#X msg 673 71 1;
#X obj 673 110 +;
#X msg 934 82 4;
#X text 486 365 Envoi le start du pattern en fonction de sa durée.
Pour une synchronisation globale \, il y a remise à zéro du compteur
tout les X passages à 0 de la phase. Il faut avoir X supérieur à
la longeur max des patterns.;
#X obj 404 316 s clearCounters;
#X obj 712 456 r resetGlobalCounter;
#X obj 526 455 r pulse;
#X obj 864 456 r duration;
#X obj 593 456 r clearCounters;
#X obj 128 274 route test level offset clearCounters, f 38;
#X connect 0 0 2 0;
#X connect 0 1 3 0;
#X connect 0 3 4 0;
#X connect 1 0 0 0;
#X connect 2 0 25 0;
#X connect 5 0 19 0;
#X connect 5 0 47 0;
#X connect 6 0 22 0;
#X connect 6 0 53 0;
#X connect 7 0 57 0;
#X connect 9 0 23 0;
#X connect 10 0 5 0;
#X connect 10 1 7 0;
#X connect 10 2 8 0;
#X connect 11 0 21 0;
#X connect 12 0 0 0;
#X connect 13 0 12 0;
#X connect 14 0 15 0;
#X connect 15 0 16 0;
#X connect 16 0 18 0;
#X connect 16 0 99 0;
#X connect 19 0 48 0;
#X connect 20 0 12 0;
#X connect 24 0 27 1;
#X connect 24 0 33 0;
#X connect 26 0 30 0;
#X connect 27 0 26 0;
#X connect 28 0 24 0;
#X connect 29 0 45 0;
#X connect 31 0 35 0;
#X connect 33 0 31 0;
#X connect 34 0 33 1;
#X connect 34 0 46 0;
#X connect 35 0 36 0;
#X connect 35 0 43 0;
#X connect 36 0 37 1;
#X connect 37 0 32 0;
#X connect 37 0 38 0;
#X connect 38 0 40 0;
#X connect 39 0 37 0;
#X connect 41 0 44 0;
#X connect 41 0 19 0;
#X connect 42 0 35 1;
#X connect 45 0 27 0;
#X connect 46 0 42 0;
#X connect 47 0 50 0;
#X connect 48 0 6 0;
#X connect 50 0 48 1;
#X connect 51 0 48 1;
#X connect 52 0 51 0;
#X connect 52 0 54 0;
#X connect 53 0 49 0;
#X connect 55 0 34 0;
#X connect 56 0 59 0;
#X connect 58 0 55 0;
#X connect 59 0 1 0;
#X connect 60 0 59 0;
#X connect 61 0 62 0;
#X connect 61 0 63 0;
#X connect 61 0 66 0;
#X connect 63 0 65 1;
#X connect 64 0 24 0;
#X connect 65 0 67 0;
#X connect 66 0 65 0;
#X connect 67 0 68 0;
#X connect 67 0 68 1;
#X connect 68 0 69 0;
#X connect 69 0 70 0;
#X connect 70 0 71 0;
#X connect 74 0 82 0;
#X connect 75 0 87 0;
#X connect 76 0 82 1;
#X connect 77 0 78 1;
#X connect 78 0 79 0;
#X connect 79 0 81 0;
#X connect 80 0 92 0;
#X connect 82 0 83 0;
#X connect 82 0 85 0;
#X connect 83 0 77 0;
#X connect 84 0 83 1;
#X connect 86 0 78 0;
#X connect 88 0 91 1;
#X connect 88 0 74 0;
#X connect 89 0 90 0;
#X connect 90 0 91 0;
#X connect 91 0 75 0;
#X connect 92 0 76 0;
#X connect 95 0 64 0;
#X connect 96 0 29 0;
#X connect 97 0 34 0;
#X connect 98 0 64 0;
#X connect 99 0 10 0;
#X connect 99 0 17 0;
#X connect 99 1 9 0;
#X connect 99 2 11 0;
#X connect 99 3 94 0;
